name processed_emg_signals
nRows=33
nColumns=7
 
endheader
time	LGLTMED	LRF	LADDLONG	LST	LTA	LGM
0.0	0.0134939424854342	0.1143024627497868	0.0420108354888367	0.0267075673642642	0.0221466920914636	0.0006652493503368
0.001	0.0159578863929439	0.0927757473539395	0.0556961240986098	0.0376657256293841	0.0146132927157711	0.0031064845676639
0.002	0.0184247570659135	0.0713074852378012	0.069461085866207	0.0484914967757807	0.0070706360653691	0.0068702076190291
0.003	0.0208931610847158	0.0499109575755076	0.0832987638869702	0.0591766187060852	0.0004770579430269	0.0106234759296147
0.004	0.023361705633391	0.0285993888068409	0.09720216076774	0.0697129900428676	0.0080255671738632	0.0143638797005294
0.005	0.0258290005123915	0.007385929643482	0.1111642495006568	0.0800926839603918	0.0155706729350306	0.0180890483705461
0.006	0.0282936601396	0.0137163596445702	0.1251779842479098	0.0903079617118382	0.0231081655815659	0.0217966556489476
0.007	0.0307543055337083	0.0346945256162054	0.139236310989834	0.1003512858094285	0.03063385004251	0.02548442439296
0.008	0.0332095662742907	0.055535737680122	0.1533321779922371	0.1102153328168281	0.0381435512538128	0.0291501313069319
0.009000000000000001	0.0356580824331256	0.0762273037161664	0.1674585460532164	0.1198930057150342	0.0456331194819282	0.0327916114435341
0.01	0.0380985064716963	0.0967566852688106	0.1816083984951832	0.129377445804566	0.0530984355246735	0.0364067624904247
0.011	0.0405295050998014	0.1171115122887134	0.1957747508728331	0.1386620441080062	0.0605354157780629	0.039993548828746
0.012	0.042949761090547	0.1372795974008522	0.2099506603728038	0.147740452238128	0.0679400171599285	0.0435500053524744
0.013000000000000001	0.0453579750473688	0.1572489496792739	0.2241292348853852	0.1566065926985694	0.0753082418829759	0.0470742410397544
0.014	0.0477528671190501	0.1770077879099346	0.2383036417332187	0.1652546685859427	0.0826361420716034	0.0505644422691338
0.015	0.0501331786590276	0.1965445533249887	0.2524671160457294	0.1736791726648385	0.0899198242181219	0.0540188758750109
0.016	0.0524976738255392	0.2158479217946105	0.2666129687713072	0.181874895789482	0.0971554534747447	0.0574358919380599
0.017	0.0548451411194735	0.2349068154656826	0.2807345943212188	0.1898369346484746	0.1043392577783777	0.0608139263079378
0.018000000000000002	0.0571743948567312	0.2537104138399698	0.2948254778406998	0.1975606988117403	0.111467531805482	0.0641515028571924
0.019	0.0594842765724378	0.2722481642876416	0.3088792021033459	0.2050419170615209	0.1185366407547902	0.0674472354667478
0.02	0.0617736563545349	0.2905097919951869	0.3228894540252011	0.212276642991766	0.1255430239559209	0.0706998297442136
0.021	0.0640414341048844	0.3084853093503676	0.3368500307953153	0.2192612598623766	0.1324831983024098	0.0739080844767456
0.022	0.0662865407264117	0.3261650247704966	0.3507548456197498	0.2259924846965056	0.1393537615079595	0.0770708928203448
0.023	0.0685079392353551	0.3435395509832121	0.3645979330766277	0.2324673716115263	0.1461513951849701	0.0801872432276109
0.024	0.0707046257979728	0.3605998127712032	0.3783734540805882	0.2386833143770199	0.1528728677444604	0.0832562201162367
0.025	0.0728756306912868	0.3773370541946688	0.392075700456118	0.2446380481965982	0.1595150371164968	0.0862770042811786
0.026000000000000002	0.0750200191876013	0.3937428453068438	0.4056990991205778	0.2503296507128755	0.1660748532904004	0.0892488730543707
0.027	0.0771368923626615	0.4098090883798925	0.419238215878906	0.255756542237638	0.1725493606743531	0.0921712002170184
0.028	0.079225387827341	0.425528023658765	0.4326877588329171	0.2609174852116408	0.1789357002747351	0.095043455670694
0.029	0.0812846803830512	0.4408922346607996	0.4460425814087819	0.2658115829024824	0.1852311116963821	0.09786520487433
0.03	0.0833139826010247	0.4558946530382998	0.4592976850069895	0.2704382773539504	0.1914329349658559	0.1006361080548735
0.031	0.0853125453259042	0.4705285630202141	0.4724482212798365	0.2747973466063849	0.1975386121804458	0.1033559191997232
0.032	0.0872796581044542	0.4847876054477589	0.4854894940428896	0.2788889012129383	0.2035456889862156	0.1060244848396023
